<?xml version="1.0" encoding="utf-8"?>
<!-- Generator: Adobe Illustrator 28.0.0, SVG Export Plug-In . SVG Version: 6.00 Build 0)  -->
<svg version="1.1" id="Layer_1" xmlns="http://www.w3.org/2000/svg" xmlns:xlink="http://www.w3.org/1999/xlink" x="0px" y="0px"
	 viewBox="0 0 115 115" style="enable-background:new 0 0 115 115;" xml:space="preserve">
<style type="text/css">
	.st0{fill-rule:evenodd;clip-rule:evenodd;stroke:#000000;stroke-miterlimit:10;}
</style>
<path class="st0" d="M42.1,26.3c-1,0-1.8,0.8-1.8,1.8c0,1,0.8,1.8,1.8,1.8c1,0,1.8-0.8,1.8-1.8C43.8,27.1,43.1,26.3,42.1,26.3
	 M90.3,83c-3.9-12.1-15-8.8-27-13.1c-8.3-3-15.1-8.3-18.7-19c-0.3-0.9-0.6-1.8-0.8-2.6c3.9,5.3,13.1,15.4,27.3,17.9
	C90.4,69.6,90.3,83,90.3,83z M84.3,76.2c0.1,10.6-7.3,14.5-6.9,24.7C65.7,91.4,77.8,85.6,84.3,76.2z M86.1,78.1
	c2.5,3.6,2.8,7.8,2.6,10.4c-0.6,6-3.5,11.7-3.8,19.2C72.9,100.3,86.6,90.7,86.1,78.1z M87.8,60.3c18.1,15.5,11.9,37.1,7.4,53
	c-13.4-12.9,0.5-25.4-4.6-41.6c2.7,2.5,4.3,8.6,5.1,13.9C96,76.5,94,67.6,87.8,60.3z M104.1,7.3c5.6,9.1,7.1,23.5-5.1,27.4
	c-11.4,3.7-28.6,1.2-38.1,7C71.3,29.4,106,30.9,104.1,7.3z M104.2,33.7c0.6,10.9-8.2,12.8-17.7,12.1c4.4,2,8.2,2.6,11.3,2.5
	c-6.6,6.3-15.2,4.8-22.2,0.4c0,0,3.1,3.3,10.8,7.2c-10.8,3.1-18-0.6-22.7-9.4C77.5,35.2,95.9,43.5,104.2,33.7z M89.1,1.7
	c7.3,8.5,7.4,16.6,1.3,21.7c-7.7,6.4-18.5,7.6-27.2,12.9C70.6,25.8,93,21.3,89.1,1.7z M32.3,27.6c4.9-7.1,15.1-6.9,21-1.4
	c2.6,2.4,4.5,5,6.3,7.8c-3.8-3.2-7.9-5.6-7.9-5.6c5.6,10.3-2.1,14.4-9.1,16.1c-2.4-7.1-5.6-12.4-20.2-14.5c-6-0.9-15.7-2-15.7-2
	L32.3,27.6z"/>
</svg>
